<?xml version="1.0" encoding="utf-8"?>
<!-- Generator: Adobe Illustrator 17.0.0, SVG Export Plug-In . SVG Version: 6.00 Build 0)  -->
<!DOCTYPE svg PUBLIC "-//W3C//DTD SVG 1.1//EN" "http://www.w3.org/Graphics/SVG/1.1/DTD/svg11.dtd">
<svg version="1.1" id="Capa_1" xmlns="http://www.w3.org/2000/svg" xmlns:xlink="http://www.w3.org/1999/xlink" x="0px" y="0px"
	 width="500px" height="500px" viewBox="0 0 500 500" enable-background="new 0 0 500 500" xml:space="preserve">
<g id="Capa_1_2_" display="none">
	<g id="Capa_1_1_" display="inline">
		<g>
			<path fill="#444444" d="M256.706,200.872c-11.473,0-22.028,7.544-29.581,21.728c-7.24,13.579-12.069,31.391-12.069,45.27
				c0,15.994,6.039,24.443,17.503,24.443c11.164-0.004,21.732-8.754,29.581-24.147c7.24-14.184,12.065-32.583,12.065-46.476
				C274.205,209.321,267.266,200.872,256.706,200.872z"/>
			<path fill="#444444" d="M23.5,24.857v448h448v-448C471.5,24.857,23.5,24.857,23.5,24.857z M352.986,299.562
				c-15.693,15.689-36.216,24.739-56.444,24.739c-11.769,0-21.419-4.529-25.953-11.769c-1.514-2.415-1.805-3.924-2.71-9.359
				c-11.473,13.279-23.542,19.013-40.441,19.013c-29.877,0-48.89-22.333-48.89-56.739c0-51.005,33.501-93.256,73.642-93.256
				c16.894,0,25.348,4.225,33.506,16.903l3.02-10.564h35.594c-1.801,6.039-7.244,24.447-8.749,31.082l-18.113,67.003
				c-0.9,3.315-1.21,6.335-1.21,9.054c0,4.829,2.71,7.549,7.849,7.549c5.73,0,12.974-3.02,19.013-7.849
				c14.788-11.469,24.443-33.802,24.443-57.03c0-27.763-12.974-51.91-34.707-65.489c-13.579-8.145-32.592-12.678-54.024-12.678
				c-63.679,0-108.353,42.255-108.353,102.014c0,57.949,40.136,95.971,100.8,95.971c15.693,0,32.292-2.41,46.184-6.626
				c11.769-3.633,19.318-7.244,33.802-15.994l18.399,26.557c-16.298,9.659-23.542,13.283-37.726,17.503
				c-20.518,6.33-42.246,9.645-63.974,9.645c-42.556,0-75.752-12.065-99.595-35.916c-22.633-22.333-35.007-54.324-35.007-89.331
				c0-37.426,12.678-69.718,36.821-94.165c27.767-27.763,64.288-41.346,111.064-41.346c70.323,0,120.427,45.266,120.427,108.344
				C381.654,255.201,371.39,281.153,352.986,299.562z"/>
		</g>
	</g>
	<g id="Capa_2" display="inline">
		<path fill="#444444" d="M360.736,301.748c0,8.412-6.927,15.339-15.339,15.339s-15.339-6.927-15.339-15.339
			s6.927-15.339,15.339-15.339S360.736,293.336,360.736,301.748z M469.1,246.329c0,122.714-99.458,222.171-222.171,222.171
			S24.757,369.042,24.757,246.329S124.215,24.157,246.929,24.157S469.1,123.615,469.1,246.329z M400.321,284.924
			c0-5.938-4.453-10.886-10.391-11.381v-29.194c0-10.886-8.907-19.793-19.793-19.793l-26.72-2.474l-23.751-35.627
			c-0.495-0.495-0.495-0.99-0.99-0.99l0,0c-3.464-4.948-9.401-8.412-16.329-8.412h-49.976h-94.509
			c-9.896,0-18.308,7.422-19.793,17.318H74.733c-4.453,0-7.917,3.464-7.917,7.917l0,0c0,4.453,3.464,7.917,7.917,7.917h72.738
			c0.495,0,0.99,0,0.99,0c3.959,0.495,6.927,3.959,6.927,7.917l0,0c0,4.453-3.464,7.917-7.917,7.917h-9.401H94.526
			c-4.453,0-7.917,3.464-7.917,7.917l0,0c0,4.453,3.464,7.917,7.917,7.917h43.544h35.627c4.453,0,7.917,3.464,7.917,7.917l0,0
			c0,4.453-3.464,7.917-7.917,7.917H138.07h-20.782c-4.453,0-7.917,3.464-7.917,7.917l0,0c0,4.453,3.464,7.917,7.917,7.917h20.782
			l0,0c-4.948,1.484-8.412,5.938-8.412,10.886v14.35c0,6.433,4.948,11.381,11.381,11.381h16.329
			c3.464,12.865,15.339,22.267,29.194,22.267s25.73-9.401,29.194-22.267h37.111h62.841c3.464,12.865,15.339,22.267,29.194,22.267
			s25.73-9.401,29.194-22.267h13.855c6.433,0,11.381-4.948,11.381-11.381v-13.855h0.989L400.321,284.924L400.321,284.924z
			 M187.056,286.409c-8.412,0-15.339,6.927-15.339,15.339s6.927,15.339,15.339,15.339s15.339-6.927,15.339-15.339
			S195.468,286.409,187.056,286.409z"/>
	</g>
	<g id="Capa_3" display="inline">
		<path fill="#444444" d="M305.34,464.451c118.689-31.803,189.869-154.285,158.067-272.974
			C431.604,72.789,308.571,1.756,189.882,33.559S0.161,188.394,31.963,307.082c12.349,46.088,38.41,84.416,72.652,112.653
			c0.093,0.462,0.2,0.631,0.295,1.101l-27.365,40.952l158.553,10.6l-70.119-142.822l-24.398,36.618
			c-21.796-19.592-38.667-45.25-46.882-75.911c-22.742-84.874,27.119-171.237,111.994-193.979s171.237,27.119,193.979,111.994
			c22.439,83.744-25.875,168.993-108.692,193.094l7.16,64.141C301.185,465.036,303.296,464.999,305.34,464.451z"/>
		<path fill="#409A9E" d="M308.276,203.299H254.94v-8.845c0-9.417-0.616-15.578-1.848-18.483c-1.232-2.904-3.873-4.356-7.921-4.357
			c-3.257,0-5.699,1.254-7.327,3.763c-1.628,2.509-2.442,6.271-2.442,11.288c0,8.361,1.672,14.214,5.017,17.559
			c3.256,3.345,12.85,9.858,28.78,19.539c13.554,8.185,22.795,14.456,27.724,18.813c4.929,4.357,9.087,10.518,12.476,18.483
			c3.388,7.965,5.083,17.889,5.083,29.77c0,19.011-4.577,33.929-13.73,44.755s-22.883,17.515-41.19,20.067v20.067h-24.556v-20.727
			c-14.258-1.408-26.712-6.887-37.361-16.436c-10.65-9.549-15.974-26.206-15.974-49.969v-10.43h53.336v13.07
			c0,14.346,0.55,23.257,1.65,26.734c1.1,3.477,3.762,5.215,7.987,5.215c3.608,0,6.293-1.21,8.053-3.631
			c1.76-2.42,2.64-6.007,2.64-10.76c0-11.97-0.836-20.529-2.508-25.678c-1.672-5.149-7.393-10.759-17.162-16.832
			c-16.282-10.209-27.35-17.712-33.203-22.509s-10.914-11.552-15.182-20.265c-4.269-8.713-6.403-18.571-6.403-29.572
			c0-15.93,4.511-28.428,13.532-37.493s22.553-14.654,40.596-16.766v-17.03h24.556v17.03c16.458,2.113,28.78,7.635,36.965,16.568
			s12.278,21.277,12.278,37.031C308.804,195.466,308.628,198.811,308.276,203.299L308.276,203.299z"/>
	</g>
	<g id="Capa_4" display="inline">
		<path fill="#444444" d="M179.887,40.823h-58.818c-5.837,0-10.858,3.116-13.413,8.366c-8.665,17.5-26.507,63.044-27.494,141.614
			c-1.115,92.763,92.112,229.607,180.873,252.224c76.169,19.405,124.786,13.936,143.914,10.148
			c5.736-1.147,10.164-5.149,11.583-10.836l12.853-53.243c1.707-7.053-1.377-14.187-7.902-17.372l-85.192-41.473
			c-7.022-3.399-15.452-0.891-19.453,5.784c-12.821,21.454-41.889,29.809-71.864,8.302c-28.278-22.9-61.603-81.665-75.839-113.662
			c-16.503-36.681,4.759-67.483,28.406-76.111c6.952-2.545,10.628-9.593,9.572-16.924L194.65,52.956
			C193.604,45.812,187.175,40.823,179.887,40.823z"/>
	</g>
	<g id="Capa_5" display="inline">
		<path fill="#444444" d="M366.957,161.983c0-87.019-73.271-119.45-119.455-119.45s-119.455,32.431-119.455,119.45v80.827h-24.884
			v207.842h288.673V242.81h-24.884v-80.827H366.957z M265.676,383.287h-36.347l5.938-44.521
			c-6.293-4.039-10.482-11.054-10.482-19.087c0-12.544,10.173-22.717,22.717-22.717s22.717,10.173,22.717,22.717
			c0,8.033-4.189,15.048-10.482,19.087L265.676,383.287z M327.139,242.81H167.87v-80.827c0-77.469,78.837-79.632,79.632-79.632
			s79.632,2.167,79.632,79.632v80.827H327.139z"/>
	</g>
	<g id="Capa_6" display="inline">
		<path fill="#444444" d="M408.978,176.254c7.904-10.673,12.747-23.756,12.747-38.066c0-35.441-28.747-64.197-64.201-64.197
			c-10.735,0-20.704,2.881-29.594,7.55c-11.864-32.461-42.928-55.684-79.489-55.684c-36.565,0-67.633,23.222-79.489,55.684
			c-8.889-4.651-18.854-7.55-29.594-7.55c-35.454,0-64.197,28.756-64.197,64.197c0,15.857,5.964,30.167,15.476,41.369
			c-21.847,16.78-35.978,43.098-35.978,72.768c0,49.976,39.957,90.56,89.677,91.725c-29.854-27.721-34.401-71.28-34.598-73.341
			l-1.151-11.999l11.64-3.163c0.654-0.179,16.215-4.342,36.436-4.342c20.794,0,38.945,4.243,54.044,12.613
			c8.974-28.066,30.329-47.785,31.462-48.82l9.624-8.759l9.624,8.759c1.143,1.035,22.483,20.754,31.458,48.815
			c15.09-8.37,33.227-12.608,53.999-12.608c20.203,0,35.75,4.167,36.4,4.346l12.572,3.423l-2.24,12.837
			c-0.354,2.025-8.199,44.908-38.246,72.248c0.721,0.018,1.429,0.099,2.164,0.099c50.719,0,91.833-41.127,91.833-91.833
			C449.356,220.674,433.348,192.765,408.978,176.254z"/>
		<path fill="#444444" d="M296.033,278.562c-5.153,3.28-9.673,7.196-13.746,11.394c0.027-0.672,0.215-1.29,0.215-1.967
			c0-34.46-30.709-62.413-30.709-62.413s-30.714,27.954-30.714,62.413c0,0.677,0.188,1.295,0.215,1.967
			c-4.077-4.198-8.594-8.114-13.76-11.394c-35.136-22.371-83.557-9.221-83.557-9.221s5.309,49.447,40.459,71.845
			c25.001,15.919,56.208,13.845,69.65,11.331v110.212c0,5.91,7.532,10.704,13.442,10.704c5.919,0,13.442-4.79,13.442-10.704V352.338
			c13.442,2.581,48.873,5.135,74.466-11.148c35.15-22.398,43.936-71.845,43.936-71.845S331.183,256.191,296.033,278.562z"/>
	</g>
	<g id="Capa_7" display="inline">
		<g>
			<path fill="#444444" d="M172.209,335.65c2.765-0.178,5.596-0.298,8.568-0.298h24.702c-24.536-9.319-44.657-24.872-61.516-45.445
				c0.145-0.315,0.29-0.638,0.435-0.953c3.001,0,6.002,0,9.004,0c11.785,0,23.574,0.008,35.359-0.008
				c1.492-0.008,2.744-0.05,3.486,1.774c6.645,16.258,15.947,30.887,26.696,44.641h20.258c-12.9-13.572-22.886-28.992-30.982-46.179
				c13.675,0,26.849,0,40.168,0c0,15.342,0,30.596,0,46.179h10.749c0.854-0.129,1.72-0.008,2.612-0.008
				c0.734,0,1.455,0.058,2.164,0.141c0-15.632,0-30.907,0-46.311c13.294,0,26.472,0,40.172,0
				c-8.51,18.19-19.209,34.369-33.299,48.633c5.215,3.068,8.722,8.705,8.722,15.28c0,1.87-0.286,3.673-0.812,5.36
				c76.775-11.068,135.004-77.716,134.1-156.825c-0.966-84.693-69.977-154.79-156.75-154.74
				c-87.553,0.05-157.667,71.859-156.502,158.753C100.267,259.862,128.895,308.051,172.209,335.65z M265.698,273.529
				c-0.502,0-1.003-0.087-1.737-0.17c0-20.83,0-41.341,0-62.018c19.4,0,38.626,0,58.449,0c-0.626,6.964-1.011,13.713-1.886,20.395
				c-1.749,13.464-4.979,26.6-9.277,39.467c-0.51,1.521-1.078,2.404-2.989,2.388C294.073,273.496,279.887,273.537,265.698,273.529z
				 M264.036,195.651c0-20.656,0-41.233,0-62.014c0.817-0.075,1.621-0.216,2.413-0.216c13.767-0.012,27.537,0,41.308-0.021
				c1.501-0.004,2.719-0.017,3.345,1.865c6.363,19.197,10.438,38.812,10.985,59.083c0.008,0.303-0.087,0.609-0.211,1.302
				C302.562,195.651,283.415,195.651,264.036,195.651z M289.09,340.865c1.248-1.604,2.015-2.624,2.823-3.627
				c11.321-14.135,20.967-29.299,28.113-46.005c0.415-0.97,1.799-2.168,2.736-2.176c14.703-0.137,29.415-0.087,44.123-0.083
				c0.386,0,0.779,0.149,1.89,0.373C347.721,315.21,322.07,332.881,289.09,340.865z M394.227,233.738
				c-2.715,13.145-7.727,25.494-13.995,37.345c-0.759,1.434-1.385,2.524-3.407,2.508c-15.976-0.112-31.931-0.087-47.907-0.104
				c-0.601,0-1.19-0.112-2.176-0.22c6.45-20.25,10.106-40.777,10.857-61.943c19.943,0,39.6,0,60.148,0
				C396.561,219.01,395.736,226.446,394.227,233.738z M379.69,135.101c9.654,17.684,15.835,36.466,17.361,56.654
				c0.087,1.223,0.008,2.458,0.008,3.876c-19.86,0-39.517,0-59.452,0c-0.759-21.162-4.419-41.702-10.881-61.993
				c1.322-0.079,2.226-0.174,3.134-0.174c15.458-0.021,30.895-0.075,46.349,0.021C377.397,133.492,379.188,134.176,379.69,135.101z
				 M368.365,117.006c-0.129,0.332-0.257,0.663-0.394,0.995c-1.223,0-2.446,0-3.669,0c-13.559,0-27.119-0.004-40.674,0.004
				c-1.467,0-2.769,0.116-3.523-1.724c-7.283-17.817-17.721-33.705-29.801-48.587c-0.257-0.315-0.448-0.684-0.995-1.521
				C322.037,73.986,347.622,91.766,368.365,117.006z M263.932,63.246c9.824,4.983,36.317,41.287,39.72,54.54
				c-13.228,0-26.401,0-39.72,0C263.932,99.484,263.932,81.382,263.932,63.246z M182.929,273.487
				c-15.653,0.025-31.309,0.075-46.966-0.025c-1.169-0.008-2.889-0.808-3.407-1.766c-9.435-17.319-15.495-35.708-17.207-55.431
				c-0.099-1.144-0.112-2.292-0.133-3.441c-0.008-0.415,0.075-0.825,0.133-1.467c19.69,0,39.351,0,59.402,0
				c0.746,21.17,4.394,41.623,10.84,61.864C184.483,273.342,183.704,273.487,182.929,273.487z M248.379,273.272
				c-0.792,0.087-1.583,0.257-2.371,0.257c-13.874,0.017-27.74-0.008-41.615,0.041c-1.642,0.008-2.636-0.29-3.217-2.064
				c-6.214-18.799-10.214-38.004-10.898-57.844c-0.025-0.705,0.079-1.422,0.133-2.326c19.267,0,38.419,0,57.968,0
				C248.379,232.026,248.379,252.529,248.379,273.272z M248.366,195.663c-19.379,0-38.518,0-58.275,0
				c0.365-5.294,0.539-10.454,1.115-15.57c1.666-14.956,4.966-29.56,9.729-43.841c0.688-2.06,1.53-2.927,3.872-2.906
				c13.559,0.133,27.114,0.062,40.674,0.07c0.92,0,1.824,0.104,2.893,0.17C248.366,154.277,248.366,174.783,248.366,195.663z
				 M248.296,62.952c0,18.339,0,36.487,0,54.842c-13.199,0-26.368,0-39.596,0C211.855,105.142,235.164,72.842,248.296,62.952z
				 M222.947,66.164c-4.514,6.131-8.759,11.665-12.759,17.377c-7.072,10.102-13.049,20.83-17.775,32.23
				c-0.647,1.554-1.38,2.272-3.163,2.259c-14.392-0.066-28.785-0.033-43.182-0.046c-0.597,0-1.19-0.124-2.599-0.282
				C164.619,91.749,190.27,74.069,222.947,66.164z M116.065,184.239c2.334-17.24,8.05-33.378,16.25-48.662
				c0.497-0.924,1.724-2.064,2.62-2.073c16.689-0.124,33.382-0.087,50.705-0.087c-6.438,20.457-10.189,41.034-10.906,62.242
				c-19.893,0-39.472,0-59.663,0C115.406,191.783,115.559,187.986,116.065,184.239z"/>
		</g>
		<g>
			<g>
				<path fill="#444444" d="M332.122,344.119c-10.89,5.903-22.546,10.566-34.804,13.829c-5.198,5.803-10.015,11.474-12.884,15.553
					h21.481L332.122,344.119z"/>
			</g>
			<g>
				<path fill="#444444" d="M405.345,344.55c0-7.893-6.342-14.297-14.16-14.297c-4.025,0-7.644,1.7-10.226,4.419h-0.008
					l-0.323,0.323c-2.359,1.621-3.797,3.354-3.797,3.354l-23.359,23.748l-16.324,16.299l-132.89,0.099
					c-19.002,0-9.7-6.525-9.7-6.525s60.177,0,67.253,0c1.53,0,2.864-0.373,4.058-1.003c6.471-2.338,11.109-8.564,11.109-15.91
					c0-9.343-7.503-16.718-16.743-16.718c-0.833,0-1.65-0.112-2.458,0.008h-73.84c-61.939,0-74.325,42.464-74.325,42.464
					l-44.243,65.483h107.844c8.025-24.022,28.424-26.248,28.424-26.248h111.488c21.68,0,35.397-10.915,35.397-10.915l4.493-4.655
					l48.032-49.623l-0.025-0.033c1.111-1.078,2.031-2.338,2.744-3.731c1.293-2.243,1.679-4.162,1.538-5.783
					C405.324,345.06,405.345,344.807,405.345,344.55z"/>
			</g>
			<g>
				<path fill="#444444" d="M334.166,373.314l30.485-31.301l-0.017-0.017c1.521-1.488,2.475-3.569,2.475-5.878
					c0.004-4.523-3.623-8.191-8.092-8.191c-2.305,0-4.377,0.966-5.845,2.529l-0.008-0.008c0,0-33.171,31.347-41.217,42.883
					L334.166,373.314z"/>
			</g>
		</g>
	</g>
	<g id="Capa_8" display="inline">
		<g>
			<polygon fill="#444444" points="314.446,296.493 307.351,303.588 293.449,317.416 286.493,324.372 293.449,331.327 
				307.351,345.299 412.048,450 440,422.048 			"/>
			<path fill="#444444" d="M293.449,290.963c5.105-5.887,9.788-12.13,13.902-18.798c13.264-21.353,20.923-46.533,20.923-73.491
				c0-27.027-7.664-52.212-20.923-73.56c-4.114-6.669-8.797-12.912-13.902-18.798C267.838,77.303,230.385,59,188.674,59
				C111.564,59,49,121.564,49,198.674s62.564,139.6,139.674,139.6C230.385,338.274,267.838,319.971,293.449,290.963z
				 M188.674,310.326c-61.717,0-111.726-50.009-111.726-111.652c0-61.717,50.009-111.726,111.726-111.726
				c48.023,0,88.953,30.289,104.775,72.852c4.466,12.06,6.951,25.18,6.951,38.874c0,13.62-2.481,26.744-6.951,38.805
				C277.626,280.037,236.697,310.326,188.674,310.326z"/>
		</g>
	</g>
	<g id="Capa_9" display="inline">
		<path fill="#444444" d="M244.992,459.357c-78.171,0-141.776-63.6-141.776-141.776c0-104.198,71.789-201.823,114.579-250.748
			c5.338-6.096,10.235-11.472,14.525-16.049l12.773-12.428l12.958,12.866c4.109,4.395,8.858,9.599,14.259,15.766
			c15.059,17.29,37.275,44.799,57.652,77.721c36.816,59.483,55.909,116.449,56.759,169.33l0.063,3.351
			c0,17.939-3.259,35.28-9.67,51.728C355.698,423.947,303.835,459.357,244.992,459.357z M244.983,67.962
			c-3.347,3.629-7.233,7.927-11.392,12.685c-40.854,46.71-109.393,139.591-109.393,236.939c0,66.606,54.191,120.793,120.793,120.793
			c50.145,0,94.333-30.177,112.58-76.891c5.46-14.002,8.235-28.775,8.235-43.906l-0.063-3.187
			c-0.792-49.068-18.831-102.429-53.627-158.645c-19.627-31.727-41.077-58.279-55.61-74.967
			C252.191,75.851,248.301,71.549,244.983,67.962z"/>
		<path d="M187.686,311.553"/>
		<path fill="#444444" d="M350.031,315.935c0,13.144-2.396,26.001-7.149,38.176c-15.876,40.605-54.288,66.851-97.891,66.851
			c-57.896,0-105.018-47.106-105.018-105.027c0,0,42.1-19.69,105.04,0C307.948,335.621,350.031,315.935,350.031,315.935z"/>
	</g>
	<g id="Capa_10" display="inline">
		<g>
			<path fill="#444444" d="M354.483,373.85c-63.708,55.566-158.378,53.878-220.202-3.97
				C77.693,316.935,66.25,233.168,104.16,167.792l3.537,15.081c0.967,4.122,4.636,6.903,8.697,6.903
				c0.675,0,1.365-0.081,2.046-0.237c4.807-1.129,7.79-5.935,6.661-10.742l-8.263-35.23c-0.03-0.141-0.101-0.262-0.136-0.403
				c-0.091-0.307-0.191-0.605-0.312-0.902c-0.106-0.257-0.212-0.504-0.338-0.741c-0.141-0.277-0.297-0.539-0.469-0.796
				c-0.146-0.227-0.307-0.448-0.474-0.66c-0.191-0.242-0.403-0.474-0.625-0.695c-0.191-0.197-0.388-0.378-0.595-0.554
				c-0.126-0.106-0.232-0.237-0.368-0.338c-0.126-0.101-0.267-0.156-0.398-0.247c-0.217-0.141-0.433-0.272-0.66-0.398
				c-0.292-0.166-0.59-0.317-0.892-0.438c-0.222-0.096-0.448-0.171-0.675-0.247c-0.317-0.106-0.635-0.197-0.962-0.267
				c-0.242-0.045-0.494-0.081-0.741-0.106c-0.322-0.04-0.64-0.066-0.962-0.071c-0.257,0-0.514,0.015-0.776,0.035
				c-0.328,0.025-0.65,0.06-0.972,0.121c-0.126,0.02-0.247,0.02-0.373,0.05l-35.23,8.248c-4.807,1.124-7.79,5.93-6.666,10.737
				s5.935,7.775,10.737,6.666l13.418-3.139c-41.649,72.415-28.871,164.964,33.708,223.527
				c35.129,32.857,79.816,49.378,124.554,49.378c42.556,0,85.167-14.955,119.611-45.005c3.713-3.24,4.096-8.893,0.857-12.607
				C363.855,370.988,358.206,370.605,354.483,373.85z"/>
			<path fill="#444444" d="M246.642,373.921c3.29,0,5.961-2.665,5.961-5.961v-36.651c33.985-12.491,54.467-32.015,60.811-58.11
				c15.499-63.688-59.284-142.466-62.468-145.787c-0.02-0.015-0.035-0.02-0.055-0.035c-0.025-0.03-0.06-0.055-0.091-0.086
				c-0.015-0.015-0.015-0.03-0.03-0.045c-0.191-0.181-0.433-0.252-0.64-0.408c-0.212-0.151-0.423-0.307-0.65-0.433
				c-0.181-0.101-0.322-0.267-0.509-0.338c-0.035-0.015-0.076-0.015-0.116-0.03c-0.327-0.131-0.685-0.146-1.028-0.217
				c-0.378-0.081-0.746-0.212-1.129-0.217c-0.02,0-0.035-0.01-0.055-0.01s-0.04,0.01-0.066,0.01
				c-0.333,0.005-0.655,0.131-0.988,0.191c-0.398,0.071-0.791,0.091-1.169,0.242c-0.035,0.015-0.081,0.015-0.116,0.03
				c-0.156,0.066-0.272,0.207-0.423,0.287c-0.242,0.126-0.448,0.292-0.67,0.448c-0.227,0.161-0.494,0.247-0.7,0.443
				c-0.015,0.015-0.02,0.035-0.035,0.05c-0.025,0.03-0.055,0.055-0.086,0.086c-0.015,0.015-0.035,0.02-0.05,0.035
				c-3.189,3.32-77.972,82.099-62.479,145.787c6.354,26.1,26.836,45.624,60.816,58.11v36.651
				C240.686,371.255,243.352,373.921,246.642,373.921z M301.835,270.378c-5.099,20.956-21.736,37.059-49.232,48.098v-22.26
				l31.945-31.945c2.328-2.328,2.328-6.097,0-8.43c-2.328-2.328-6.097-2.328-8.425,0l-23.52,23.52v-45.76l18.209-18.22
				c2.328-2.328,2.328-6.097,0-8.425s-6.097-2.328-8.425,0l-9.785,9.79V147.38C272.283,171.102,312.552,226.35,301.835,270.378z
				 M191.449,270.393c-10.712-43.977,29.546-99.265,49.232-123.007v57.586l-9.785-9.785c-2.328-2.328-6.097-2.328-8.425,0
				s-2.328,6.097,0,8.425l18.209,18.209v45.766l-23.515-23.515c-2.328-2.328-6.097-2.328-8.425,0s-2.328,6.097,0,8.425l31.94,31.94
				v34.041C213.191,307.447,196.553,291.343,191.449,270.393z"/>
			<path fill="#444444" d="M430.787,341.346c-1.134-4.807-5.93-7.77-10.742-6.666l-13.947,3.265
				c39.84-71.986,26.483-163.598-35.033-221.144c-67.033-62.73-170.672-65.738-241.066-7.009c-3.789,3.159-4.303,8.797-1.139,12.586
				c3.164,3.789,8.802,4.303,12.591,1.139c63.481-52.956,156.937-50.235,217.41,6.339c55.319,51.751,67.346,133.996,31.794,198.838
				l-3.366-14.345c-1.124-4.802-5.925-7.805-10.742-6.656c-4.807,1.129-7.785,5.935-6.656,10.742l8.268,35.23
				c0.02,0.081,0.081,0.146,0.096,0.227c0.237,0.872,0.569,1.723,1.068,2.499c0.055,0.096,0.131,0.171,0.197,0.267
				c0.453,0.655,0.998,1.26,1.643,1.794c0.106,0.091,0.186,0.181,0.292,0.262c0.06,0.045,0.106,0.096,0.151,0.136
				c0.438,0.312,0.932,0.484,1.406,0.715c0.338,0.161,0.65,0.388,1.008,0.514c0.927,0.312,1.879,0.484,2.832,0.484
				c0.675,0,1.355-0.076,2.041-0.232l35.225-8.248C428.923,350.955,431.906,346.148,430.787,341.346z"/>
		</g>
	</g>
	<g id="Capa_11" display="inline">
		<g>
			<path fill="#444444" d="M342.235,419.048c-49.269,22.557-85.207,9.079-126.817-6.53l-7.213-2.696
				c-43.856-16.306-75.679-30.183-75.993-30.313c-18.459-6.855-28.037-27.924-21.003-46.823
				c3.394-9.136,10.121-16.386,18.943-20.425s18.708-4.39,27.84-0.994l32.014,12.66L94.758,164.048
				c-0.122-0.203-0.234-0.416-0.334-0.634c-7.91-17.277-1.709-35.882,14.428-43.27c9.518-4.358,27.622-7.973,41.896,16.798
				c4.034,6.996,19.737,29.73,35.416,52.103l-35.608-83.292c-7.192-15.709-0.677-33.724,14.903-40.857
				c15.297-7.004,32.969-0.062,40.232,15.8l26.047,56.891l-8.43-31.993c-4.782-18.142,1.632-33.711,16.734-40.625
				c6.992-3.201,14.53-3.328,21.217-0.362c7.933,3.52,14.037,10.938,17.177,20.881c2.081,6.585,18.544,53.39,31.418,89.879
				l-2.915-50.807c-0.931-16.234,5.474-28.724,17.574-34.264c9.716-4.448,25.261,0.783,31.519,14.451
				c4.417,9.647,6.812,28.759,9.845,52.958c2.945,23.495,6.286,50.129,12.148,71.805c1.297,4.808,2.986,10.302,4.832,16.32
				C397.381,293.212,424.429,381.416,342.235,419.048z M135.703,324.386c-5.581,2.555-9.842,7.151-11.994,12.947
				c-4.468,12.013,1.588,25.388,13.495,29.816c0.657,0.271,32.165,14.004,75.648,30.178l7.247,2.705
				c40.427,15.158,72.355,27.139,116.584,6.889c71.573-32.77,48.613-107.636,33.422-157.184c-1.895-6.167-3.624-11.813-4.957-16.752
				c-6.106-22.571-9.503-49.692-12.503-73.627c-2.663-21.224-5.172-41.277-8.735-49.061c-3.162-6.907-10.869-9.24-13.844-7.878
				c-9.356,4.284-10.165,15.233-9.813,21.373l5.601,97.652c0.194,3.318-2.109,6.274-5.341,6.913
				c-3.257,0.66-6.495-1.181-7.601-4.312c-1.779-5.027-43.666-123.39-47.186-134.547c-1.943-6.155-5.547-10.791-9.871-12.708
				c-3.234-1.438-6.687-1.333-10.255,0.301c-12.423,5.688-11.215,18.172-9.388,25.109l28.157,106.879
				c0.882,3.346-0.902,6.817-4.202,7.971c-3.262,1.171-6.872-0.349-8.311-3.493L193.57,86.25
				c-4.219-9.214-13.916-13.183-22.557-9.227c-8.782,4.021-12.409,14.271-8.259,23.336l60.367,141.203
				c1.341,3.131,0.106,6.766-2.861,8.433c-3.016,1.635-6.719,0.828-8.695-1.939c-2.583-3.623-63.395-88.878-72.37-104.455
				c-9.116-15.811-17.65-14.602-24.796-11.33c-9.437,4.321-12.696,14.681-7.998,25.284l105.07,176.358
				c1.461,2.455,1.202,5.561-0.649,7.733c-1.843,2.168-4.872,2.93-7.527,1.882l-50.087-19.804
				C147.543,321.609,141.28,321.832,135.703,324.386z"/>
		</g>
	</g>
</g>
<g id="Capa_2_1_" display="none">
	<g display="inline">
		<path fill="#444444" d="M184.464,324.936c2.668-0.172,5.4-0.288,8.268-0.288h23.836c-23.676-8.992-43.092-24-59.36-43.852
			c0.14-0.304,0.28-0.616,0.42-0.92c2.896,0,5.792,0,8.688,0c11.372,0,22.748,0.008,34.12-0.008c1.44-0.008,2.648-0.048,3.364,1.712
			c6.412,15.688,15.388,29.804,25.76,43.076h19.548c-12.448-13.096-22.084-27.976-29.896-44.56c13.196,0,25.908,0,38.76,0
			c0,14.804,0,29.524,0,44.56h10.372c0.824-0.124,1.66-0.008,2.52-0.008c0.708,0,1.404,0.056,2.088,0.136
			c0-15.084,0-29.824,0-44.688c12.828,0,25.544,0,38.764,0c-8.212,17.552-18.536,33.164-32.132,46.928
			c5.032,2.96,8.416,8.4,8.416,14.744c0,1.804-0.276,3.544-0.784,5.172c74.084-10.68,130.272-74.992,129.4-151.328
			c-0.932-81.724-67.524-149.364-151.256-149.316c-84.484,0.048-152.14,69.34-151.016,153.188
			C115.044,251.804,142.668,298.304,184.464,324.936z M274.676,264.992c-0.484,0-0.968-0.084-1.676-0.164c0-20.1,0-39.892,0-59.844
			c18.72,0,37.272,0,56.4,0c-0.604,6.72-0.976,13.232-1.82,19.68c-1.688,12.992-4.804,25.668-8.952,38.084
			c-0.492,1.468-1.04,2.32-2.884,2.304C302.056,264.96,288.368,265,274.676,264.992z M273.072,189.844c0-19.932,0-39.788,0-59.84
			c0.788-0.072,1.564-0.208,2.328-0.208c13.284-0.012,26.572,0,39.86-0.02c1.448-0.004,2.624-0.016,3.228,1.8
			c6.14,18.524,10.072,37.452,10.6,57.012c0.008,0.292-0.084,0.588-0.204,1.256C310.248,189.844,291.772,189.844,273.072,189.844z
			 M297.248,329.968c1.204-1.548,1.944-2.532,2.724-3.5c10.924-13.64,20.232-28.272,27.128-44.392c0.4-0.936,1.736-2.092,2.64-2.1
			c14.188-0.132,28.384-0.084,42.576-0.08c0.372,0,0.752,0.144,1.824,0.36C353.824,305.212,329.072,322.264,297.248,329.968z
			 M398.7,226.596c-2.62,12.684-7.456,24.6-13.504,36.036c-0.732,1.384-1.336,2.436-3.288,2.42
			c-15.416-0.108-30.812-0.084-46.228-0.1c-0.58,0-1.148-0.108-2.1-0.212c6.224-19.54,9.752-39.348,10.476-59.772
			c19.244,0,38.212,0,58.04,0C400.952,212.384,400.156,219.56,398.7,226.596z M384.672,131.416
			c9.316,17.064,15.28,35.188,16.752,54.668c0.084,1.18,0.008,2.372,0.008,3.74c-19.164,0-38.132,0-57.368,0
			c-0.732-20.42-4.264-40.24-10.5-59.82c1.276-0.076,2.148-0.168,3.024-0.168c14.916-0.02,29.812-0.072,44.724,0.02
			C382.46,129.864,384.188,130.524,384.672,131.416z M373.744,113.956c-0.124,0.32-0.248,0.64-0.38,0.96c-1.18,0-2.36,0-3.54,0
			c-13.084,0-26.168-0.004-39.248,0.004c-1.416,0-2.672,0.112-3.4-1.664c-7.028-17.192-17.1-32.524-28.756-46.884
			c-0.248-0.304-0.432-0.66-0.96-1.468C329.04,72.444,353.728,89.6,373.744,113.956z M272.972,62.08
			c9.48,4.808,35.044,39.84,38.328,52.628c-12.764,0-25.476,0-38.328,0C272.972,97.048,272.972,79.58,272.972,62.08z
			 M194.808,264.952c-15.104,0.024-30.212,0.072-45.32-0.024c-1.128-0.008-2.788-0.78-3.288-1.704
			c-9.104-16.712-14.952-34.456-16.604-53.488c-0.096-1.104-0.108-2.212-0.128-3.32c-0.008-0.4,0.072-0.796,0.128-1.416
			c19,0,37.972,0,57.32,0c0.72,20.428,4.24,40.164,10.46,59.696C196.308,264.812,195.556,264.952,194.808,264.952z M257.964,264.744
			c-0.764,0.084-1.528,0.248-2.288,0.248c-13.388,0.016-26.768-0.008-40.156,0.04c-1.584,0.008-2.544-0.28-3.104-1.992
			c-5.996-18.14-9.856-36.672-10.516-55.816c-0.024-0.68,0.076-1.372,0.128-2.244c18.592,0,37.072,0,55.936,0
			C257.964,224.944,257.964,244.728,257.964,264.744z M257.952,189.856c-18.7,0-37.168,0-56.232,0
			c0.352-5.108,0.52-10.088,1.076-15.024c1.608-14.432,4.792-28.524,9.388-42.304c0.664-1.988,1.476-2.824,3.736-2.804
			c13.084,0.128,26.164,0.06,39.248,0.068c0.888,0,1.76,0.1,2.792,0.164C257.952,149.92,257.952,169.708,257.952,189.856z
			 M257.884,61.796c0,17.696,0,35.208,0,52.92c-12.736,0-25.444,0-38.208,0C222.72,102.508,245.212,71.34,257.884,61.796z
			 M233.424,64.896c-4.356,5.916-8.452,11.256-12.312,16.768c-6.824,9.748-12.592,20.1-17.152,31.1
			c-0.624,1.5-1.332,2.192-3.052,2.18c-13.888-0.064-27.776-0.032-41.668-0.044c-0.576,0-1.148-0.12-2.508-0.272
			C177.14,89.584,201.892,72.524,233.424,64.896z M130.288,178.832c2.252-16.636,7.768-32.208,15.68-46.956
			c0.48-0.892,1.664-1.992,2.528-2c16.104-0.12,32.212-0.084,48.928-0.084c-6.212,19.74-9.832,39.596-10.524,60.06
			c-19.196,0-38.088,0-57.572,0C129.652,186.112,129.8,182.448,130.288,178.832z"/>
	</g>
	<g display="inline">
		<g>
			<path fill="#444444" d="M338.772,333.108c-10.508,5.696-21.756,10.196-33.584,13.344c-5.016,5.6-9.664,11.072-12.432,15.008
				h20.728L338.772,333.108z"/>
		</g>
		<g>
			<path fill="#444444" d="M409.428,333.524c0-7.616-6.12-13.796-13.664-13.796c-3.884,0-7.376,1.64-9.868,4.264h-0.008
				l-0.312,0.312c-2.276,1.564-3.664,3.236-3.664,3.236l-22.54,22.916l-15.752,15.728l-128.232,0.096
				c-18.336,0-9.36-6.296-9.36-6.296s58.068,0,64.896,0c1.476,0,2.764-0.36,3.916-0.968c6.244-2.256,10.72-8.264,10.72-15.352
				c0-9.016-7.24-16.132-16.156-16.132c-0.804,0-1.592-0.108-2.372,0.008H195.78c-59.768,0-71.72,40.976-71.72,40.976
				l-42.692,63.188h104.064c7.744-23.18,27.428-25.328,27.428-25.328h107.58c20.92,0,34.156-10.532,34.156-10.532l4.336-4.492
				l46.348-47.884l-0.024-0.032c1.072-1.04,1.96-2.256,2.648-3.6c1.248-2.164,1.62-4.016,1.484-5.58
				C409.408,334.016,409.428,333.772,409.428,333.524z"/>
		</g>
		<g>
			<path fill="#444444" d="M340.744,361.28l29.416-30.204l-0.016-0.016c1.468-1.436,2.388-3.444,2.388-5.672
				c0.004-4.364-3.496-7.904-7.808-7.904c-2.224,0-4.224,0.932-5.64,2.44l-0.008-0.008c0,0-32.008,30.248-39.772,41.38
				L340.744,361.28z"/>
		</g>
	</g>
</g>
<g id="Capa_3_1_" display="none">
	<g display="inline">
		<g>
			<path fill="#444444" d="M201.865,237.013c-6.033,0-10.401,4.893-10.401,10.921v21.842c0,6.028,4.368,10.921,10.401,10.921
				c6.028,0,10.401-4.893,10.401-10.921v-21.842C212.266,241.902,207.893,237.013,201.865,237.013z"/>
			<path fill="#444444" d="M289.234,237.013c-6.028,0-10.401,4.893-10.401,10.921v21.842c0,6.028,4.373,10.921,10.401,10.921
				s10.401-4.893,10.401-10.921v-21.842C299.635,241.902,295.262,237.013,289.234,237.013z"/>
			<path fill="#444444" d="M386.721,175.089c-2.941-34.465-31.944-61.62-67.153-61.62c-2.921,0-5.825,0.187-8.704,0.562
				C305.867,81.771,277.905,57,244.268,57s-61.595,24.771-66.596,57.031c-2.875-0.37-5.779-0.562-8.699-0.562
				c-35.501,0-64.674,27.592-67.212,62.456c-18.701,9.661-64.233,40.868-64.233,115.685c0,6.033,4.888,10.921,10.921,10.921
				c38.297,0,63.151-13.692,78.129-26.718c1.739,16.975,5.275,39.761,12.456,62.731c19.425,62.161,56.07,95.024,105.97,95.024
				s86.549-32.851,105.97-95.024c7.185-22.97,10.717-45.756,12.456-62.731c14.986,13.026,39.836,26.718,78.12,26.718
				c6.037,0,10.921-4.888,10.921-10.921C452.472,214.268,405.23,183.984,386.721,175.089z M363.963,243.05
				c-2.263-4.531-7.36-6.91-12.273-5.741c-4.926,1.161-9.44,5.558-9.44,10.626c0,1.577-1.011,151.36-88.38,163.047v-5.658
				l19.666-18.635c4.26-4.264,4.776-11.183,0.512-15.439c-4.26-4.269-10.921-4.269-15.173,0l-13.996,14.116l-14.054-14.116
				c-4.264-4.269-11.15-4.269-15.41,0c-4.264,4.256-4.755,11.175-0.491,15.439l18.144,18.643v5.646
				c-83.208-11.699-86.849-161.474-86.849-163.043c0-5.067-3.228-9.457-8.159-10.626c-0.836-0.2-1.552-0.295-2.38-0.295
				c-4.065,0-7.822,2.28-9.702,6.037c-0.179,0.349-16.925,32.743-66.23,37.148c4.68-63.642,48.003-83.695,57.077-87.202
				c5.267-2.034,8.071-7.718,6.598-13.068c0.503-24.688,20.744-44.616,45.548-44.616c5.225,0,10.364,0.886,15.269,2.629
				c3.449,1.227,7.281,0.645,10.21-1.552s4.564-5.708,4.352-9.361c-0.05-0.874-0.083-1.752-0.083-2.638
				c0-25.116,20.432-45.552,45.548-45.552s45.552,20.436,45.552,45.552c0,0.886-0.037,1.764-0.087,2.638
				c-0.208,3.653,1.427,7.164,4.352,9.361c2.933,2.197,6.765,2.779,10.21,1.552c4.905-1.743,10.043-2.629,15.269-2.629
				c24.875,0,45.174,20.066,45.54,44.866c-0.632,3.062,0.062,6.274,1.96,8.795c1.564,2.076,3.79,3.503,6.261,4.077
				c6.407,2.5,52.018,22.549,56.894,87.148C381.545,275.867,364.67,244.423,363.963,243.05z"/>
		</g>
	</g>
</g>
<path fill="#444444" d="M333.016,155.024l-13.852,117.448c-1.036,8.264-1.548,16.176-1.548,23.748
	c0,11.272,4.044,16.868,12.132,16.868c12.908,0,25.3-8.86,37.172-26.588s17.72-39.24,17.72-64.444
	c0-36.4-13.076-66.084-39.404-88.796c-26.328-22.808-58.164-34.16-95.68-34.16c-41.128,0-75.72,14.112-103.684,42.332
	c-28.052,28.224-41.988,62.988-41.988,104.372c0,38.632,13.168,72.188,39.408,100.664c26.328,28.484,63.24,42.768,110.824,42.768
	c36.996,0,74.688-9.896,113.148-29.772l14.884,34.328c-41.128,20.992-83.892,31.492-128.028,31.492
	c-58.68,0-105.228-17.724-139.82-53.088c-34.504-35.36-51.8-77.608-51.8-126.656c0-51.28,18.16-94.128,54.468-128.544
	c36.304-34.504,80.188-51.712,131.556-51.712c48.444,0,89.14,14.884,122.008,44.484c32.956,29.684,49.476,67.116,49.476,112.288
	c0,32.78-9.292,62.032-27.792,87.672c-18.5,25.556-40.956,38.376-67.544,38.376c-20.652,0-34.932-8.688-42.852-26.156
	c-14.456,18.152-32.092,27.188-52.916,27.188c-21.336,0-39.664-8.86-54.812-26.756c-15.228-17.812-22.8-41.216-22.8-70.296
	c0-29.944,8.52-54.208,25.644-72.968c17.208-18.756,37.6-28.136,61.26-28.136c22.888,0,39.32,7.228,49.388,21.68l2.068-17.64h43.364
	V155.024z M232.18,308.096c13.42,0,25.552-6.536,36.396-19.616c10.84-12.992,16.264-29.944,16.264-50.768
	c0-11.788-4.132-22.28-12.476-31.66c-8.264-9.292-18.5-13.94-30.632-13.94c-13.08,0-23.924,5.764-32.528,17.296
	c-8.52,11.444-12.82,26.416-12.82,44.744c0,15.572,3.272,28.476,9.984,38.632C212.988,302.932,221.592,308.096,232.18,308.096z"/>
</svg>
