<?xml version="1.0" encoding="utf-8"?>
<!-- Generator: Adobe Illustrator 17.0.0, SVG Export Plug-In . SVG Version: 6.00 Build 0)  -->
<!DOCTYPE svg PUBLIC "-//W3C//DTD SVG 1.1//EN" "http://www.w3.org/Graphics/SVG/1.1/DTD/svg11.dtd">
<svg version="1.1" id="Layer_1" xmlns="http://www.w3.org/2000/svg" xmlns:xlink="http://www.w3.org/1999/xlink" x="0px" y="0px"
	 width="841.89px" height="595.28px" viewBox="0 0 841.89 595.28" enable-background="new 0 0 841.89 595.28" xml:space="preserve">
<g>
	<path fill="#989898" d="M420.945-2.109c82.665,0,152.967,28.95,210.828,86.812c57.861,57.881,86.812,128.163,86.812,210.828
		c0,81.851-28.95,151.935-86.812,210.213s-128.164,87.427-210.828,87.427c-81.871,0-151.935-29.149-210.233-87.446
		c-58.278-58.278-87.407-128.343-87.407-210.194c0-82.644,29.129-152.947,87.427-210.828C269.01,26.841,339.074-2.109,420.945-2.109
		z M318.021,200.048c21.47,0,32.244-9.921,32.244-29.764s-10.775-29.764-32.244-29.764c-9.108,0-16.747,2.916-22.978,8.691
		c-6.191,5.794-9.286,12.838-9.286,21.073C285.777,190.126,296.492,200.048,318.021,200.048z M347.785,418.317V224.851h-59.528
		v193.466H347.785z M568.515,418.317V304.202c0-27.284-6.429-48.139-19.228-62.624c-12.838-14.446-29.566-21.688-50.202-21.688
		c-27.284,0-47.126,10.338-59.548,31.014h-1.25l-3.711-26.053H382.51c0.814,11.568,1.21,32.225,1.21,62.008v131.458h60.758V306.683
		c0-7.422,0.814-12.402,2.48-14.863c4.961-15.696,15.279-23.593,31.014-23.593c19.843,0,29.764,14.089,29.764,42.166v107.904h60.778
		V418.317z"/>
</g>
</svg>
